<svg id="visual" viewBox="0 0 900 600" width="900" height="600" xmlns="http://www.w3.org/2000/svg" xmlns:xlink="http://www.w3.org/1999/xlink" version="1.1"><rect x="0" y="0" width="900" height="600" fill="#FFFFFF"></rect><path d="M0 351L21.5 344.3C43 337.7 86 324.3 128.8 323.8C171.7 323.3 214.3 335.7 257.2 337.5C300 339.3 343 330.7 385.8 335.8C428.7 341 471.3 360 514.2 368.5C557 377 600 375 642.8 356.8C685.7 338.7 728.3 304.3 771.2 294.7C814 285 857 300 878.5 307.5L900 315L900 0L878.5 0C857 0 814 0 771.2 0C728.3 0 685.7 0 642.8 0C600 0 557 0 514.2 0C471.3 0 428.7 0 385.8 0C343 0 300 0 257.2 0C214.3 0 171.7 0 128.8 0C86 0 43 0 21.5 0L0 0Z" fill="#ffff77"></path><path d="M0 225L21.5 237C43 249 86 273 128.8 273.7C171.7 274.3 214.3 251.7 257.2 253.8C300 256 343 283 385.8 294.8C428.7 306.7 471.3 303.3 514.2 292C557 280.7 600 261.3 642.8 246.5C685.7 231.7 728.3 221.3 771.2 235C814 248.7 857 286.3 878.5 305.2L900 324L900 0L878.5 0C857 0 814 0 771.2 0C728.3 0 685.7 0 642.8 0C600 0 557 0 514.2 0C471.3 0 428.7 0 385.8 0C343 0 300 0 257.2 0C214.3 0 171.7 0 128.8 0C86 0 43 0 21.5 0L0 0Z" fill="#ffc599"></path><path d="M0 161L21.5 168.8C43 176.7 86 192.3 128.8 194C171.7 195.7 214.3 183.3 257.2 183.5C300 183.7 343 196.3 385.8 189.7C428.7 183 471.3 157 514.2 163.8C557 170.7 600 210.3 642.8 224C685.7 237.7 728.3 225.3 771.2 205.8C814 186.3 857 159.7 878.5 146.3L900 133L900 0L878.5 0C857 0 814 0 771.2 0C728.3 0 685.7 0 642.8 0C600 0 557 0 514.2 0C471.3 0 428.7 0 385.8 0C343 0 300 0 257.2 0C214.3 0 171.7 0 128.8 0C86 0 43 0 21.5 0L0 0Z" fill="#ffadc4"></path><path d="M0 86L21.5 82.8C43 79.7 86 73.3 128.8 77.2C171.7 81 214.3 95 257.2 92.2C300 89.3 343 69.7 385.8 60.8C428.7 52 471.3 54 514.2 62.8C557 71.7 600 87.3 642.8 103.2C685.7 119 728.3 135 771.2 123.3C814 111.7 857 72.3 878.5 52.7L900 33L900 0L878.5 0C857 0 814 0 771.2 0C728.3 0 685.7 0 642.8 0C600 0 557 0 514.2 0C471.3 0 428.7 0 385.8 0C343 0 300 0 257.2 0C214.3 0 171.7 0 128.8 0C86 0 43 0 21.5 0L0 0Z" fill="#d6b1ff"></path></svg>